<?xml version="1.0" encoding="utf-8"?>
<!-- Generator: Adobe Illustrator 27.5.0, SVG Export Plug-In . SVG Version: 6.00 Build 0)  -->
<svg version="1.1" xmlns="http://www.w3.org/2000/svg" xmlns:xlink="http://www.w3.org/1999/xlink" x="0px" y="0px"
	 viewBox="0 0 750 500" style="enable-background:new 0 0 750 500;" xml:space="preserve">
<g id="BACKGROUND">
	<rect style="fill:#FFFFFF;" width="750" height="500"/>
</g>
<g id="OBJECTS">
	<g>
		<defs>
			<rect id="SVGID_1_" width="750" height="500"/>
		</defs>
		<clipPath id="SVGID_00000020388358630601419650000006607467019815296650_">
			<use xlink:href="#SVGID_1_"  style="overflow:visible;"/>
		</clipPath>
		<g style="clip-path:url(#SVGID_00000020388358630601419650000006607467019815296650_);">
			<g>
				<g>
					<g>
						<g>
							<g>
								<path style="fill:#353535;" d="M487.795,262.813c-5.838-15.697-19.254-28.336-35.862-31.631
									c-0.418-0.083-0.807-0.064-1.164,0.023c-0.719-1.607-3.15-2.428-4.363-0.5c-9.478,15.061-8.148,32.79-6.693,49.763
									c0.392,4.569,0.941,9.227,0.749,13.821c-0.213,5.098-1.981,7.474-4.848,11.335c-4.1,5.521,3.928,11.016,8.233,13.178
									c7.144,3.588,15.351,3.71,23.09,2.41c7.403-1.244,14.883-3.68,18.98-10.435
									C494.029,297.401,493.051,276.945,487.795,262.813z"/>
								<path style="fill:#996A52;" d="M446.484,243.283c-1.399,3.03-2.21,6.292-2.401,9.624c-0.881,15.4-1.008,58.874,25.75,57.91
									c20.024-0.721,32.421-16.916,38.989-29.245c4.153-7.796,4.193-17.131,0.059-24.936l-11.57-21.848
									c-3.674-6.936-10.232-11.889-17.909-13.523l0,0c-12.114-2.58-24.4,3.572-29.593,14.817L446.484,243.283z"/>
								<path style="fill:#996A52;" d="M500.664,293.966l-2.761,26.477c0,0,6.296,3.41,8.707,6.534
									c2.412,3.124-14.553,19.087-26.272,17.708c-11.719-1.379-21.65-14.786-17.161-20.441c0,0,7.715-6.153,12.132-6.988
									c0,0,0.564-8.145,0.882-9.086C476.51,307.23,500.664,293.966,500.664,293.966z"/>
								<path style="fill:#543836;" d="M495.492,275.777c-0.216,0-0.42-0.133-0.497-0.348c-0.1-0.275,0.041-0.578,0.316-0.678
									c1.049-0.381,1.849-1.382,1.992-2.49c0.142-1.106-0.38-2.276-1.3-2.911c-0.24-0.166-0.301-0.496-0.134-0.736
									c0.165-0.242,0.495-0.3,0.736-0.135c1.236,0.853,1.939,2.427,1.749,3.917c-0.192,1.491-1.269,2.837-2.68,3.35
									C495.613,275.767,495.552,275.777,495.492,275.777z"/>
								<path style="fill:#3F3F3F;" d="M531.344,284.966c-3.136-7.459-4.858-14.477-5.626-22.54
									c-0.656-6.879-1.12-13.864-3.241-20.49c-3.883-12.131-12.95-18.834-24.735-22.763c-13.024-4.341-27.358-5.297-40.076,0.064
									c-3.126,1.083-6.111,2.622-8.859,4.699c-5.691,4.3-11.635,11.396-7.639,18.668c4.671,8.501,14.933,11.723,23.519,14.637
									c6.037,2.049,12.193,3.769,18.54,4.505c6.936,0.805,16.289-0.352,17.828,8.646c1.053,6.155-2.127,12.19-2.286,18.333
									c-0.166,6.389,3.688,21.054-7.029,21.098c-0.175,0.001-0.332,0.027-0.475,0.073c-2.263,0.15-3.714,3.389-1.242,4.533
									c11.066,5.123,24.644,7.362,35.136-0.316C535.302,306.69,535.903,295.81,531.344,284.966z"/>
							</g>
						</g>
						<g>
							<path style="fill:#3F3F3F;" d="M481.714,267.509c-3.141-4.333-10.049-6.431-13.198-0.965
								c-0.022,0.02-0.045,0.038-0.067,0.059c-0.17,0.16-0.183,0.354-0.112,0.517c0.096,0.355,0.592,0.549,0.851,0.212
								c3.879-1.903,8.266-1.567,11.841,0.862C481.432,268.466,482.007,267.913,481.714,267.509z"/>
							<path style="fill:#3F3F3F;" d="M446.29,266.644c2.768-4.216,8.526-6.062,10.869-0.487c0.017,0.021,0.035,0.04,0.052,0.061
								c0.132,0.166,0.135,0.361,0.069,0.52c-0.094,0.351-0.51,0.527-0.707,0.181c-3.098-2.042-6.712-1.864-9.752,0.433
								C446.48,267.611,446.032,267.038,446.29,266.644z"/>
							<g>
								<path style="fill:#3F3F3F;" d="M476.858,272.674c0,2.028-1.101,3.671-2.458,3.671c-1.358,0-2.458-1.644-2.458-3.671
									c0-2.028,1.101-3.671,2.458-3.671C475.758,269.003,476.858,270.646,476.858,272.674z"/>
								<path style="fill:#FFFFFF;" d="M475.827,270.627c0,0.431-0.35,0.781-0.781,0.781c-0.431,0-0.781-0.35-0.781-0.781
									c0-0.432,0.35-0.781,0.781-0.781C475.477,269.845,475.827,270.195,475.827,270.627z"/>
							</g>
							<g>
								<path style="fill:#3F3F3F;" d="M450.879,272.674c0,2.028,1.101,3.671,2.458,3.671c1.358,0,2.458-1.644,2.458-3.671
									c0-2.028-1.101-3.671-2.458-3.671C451.98,269.003,450.879,270.646,450.879,272.674z"/>
								<path style="fill:#FFFFFF;" d="M453.202,270.627c0,0.431,0.35,0.781,0.781,0.781c0.432,0,0.781-0.35,0.781-0.781
									c0-0.432-0.35-0.781-0.781-0.781C453.552,269.845,453.202,270.195,453.202,270.627z"/>
							</g>
							<path style="fill:#543836;" d="M462.719,289.701c-0.642,0-1.334-0.14-1.856-0.645c-0.788-0.763-0.776-1.896-0.704-2.899
								l0.64-8.925c0.02-0.274,0.258-0.489,0.534-0.463c0.275,0.021,0.483,0.26,0.463,0.535l-0.64,8.925
								c-0.056,0.777-0.076,1.645,0.402,2.108c0.512,0.496,1.427,0.397,2.341,0.219c0.275-0.058,0.534,0.123,0.587,0.395
								c0.053,0.271-0.124,0.533-0.395,0.586C463.756,289.603,463.255,289.701,462.719,289.701z"/>
							<g>
								<path style="fill:#512827;" d="M472.81,292.455c0.92-0.103,1.603,0.823,1.219,1.665c-0.548,1.202-1.194,2.355-2.034,3.37
									c-1.279,1.546-3.07,2.758-5.066,2.965c-1.525,0.158-2.833-0.173-4.221-0.824c-1.367-0.641-2.437-1.266-3.422-2.41
									c-0.782-0.909-1.599-1.895-1.896-3.083c-0.188-0.75-0.003-1.337,0.752-1.295c0.766,0.042,1.532,0.079,2.298,0.104
									c3.066,0.098,6.137,0.032,9.196-0.196C470.696,292.671,471.754,292.573,472.81,292.455z"/>
								<path style="fill:#6D3A3A;" d="M472.81,292.455c-1.056,0.118-2.113,0.216-3.173,0.296c-1.159,0.086-2.321,0.142-3.483,0.181
									c-1.088,0.756-2.094,1.615-2.951,2.603c-0.836,0.963-1.442,2.209-1.678,3.483c0.373,0.211,0.76,0.415,1.184,0.613
									c1.387,0.651,2.696,0.981,4.221,0.824c1.996-0.206,3.787-1.418,5.066-2.965c0.84-1.015,1.485-2.168,2.034-3.37
									C474.413,293.278,473.73,292.352,472.81,292.455z"/>
							</g>
						</g>
					</g>
					<g>
						<g>
							<path style="fill:#996A52;" d="M427.467,415.758c0,0-12.61,63.164-13.382,94.107l23.364,2.718l9.861-93.26L427.467,415.758z"
								/>
						</g>
						<g>
							<g>
								<path style="fill:#D06F61;" d="M464.465,323.154c0,0-30.77,13.91-39.72,91.732l16.695,5.349l-10.469,89.133
									c0,0,38.307,11.283,69.405,3.214c31.098-8.068,61.046-6.389,61.046-6.389s-3.881-58.019-17.55-101.128l17.55-3.436
									c0,0-20.331-67.069-56.398-78.475c0,0-6.431,12.267-25.844,8.801C459.768,328.49,464.465,323.154,464.465,323.154z"/>
								<g>
									<path style="fill:#BA655C;" d="M522.106,338.213c-1.042,1.332-0.354,3.26,0.369,4.79c-2.033-1.62-5.02-1.553-7.399-0.506
										c-0.827,0.364-1.625,0.848-2.191,1.553c-1.254,1.561-1.015,4.068,0.428,5.457c1.443,1.389,3.852,1.571,5.558,0.523
										c-1.755,1.134-2.847,3.326-2.439,5.375c0.408,2.049,2.454,3.714,4.528,3.463c1.336-0.162,2.473-1.198,2.932-2.439
										c0.16,0.918,0.554,1.788,1.198,2.459c1.138,1.186,3.039,1.635,4.523,0.927c1.484-0.708,2.334-2.607,1.726-4.135
										c0.512,1.806,3.004,2.453,4.653,1.555c1.54-0.839,2.372-2.57,2.679-4.311c-3.655-5.548-7.728-10.862-12.201-15.491
										c-0.267-0.081-0.549-0.148-0.854-0.197C524.357,337.033,522.892,337.209,522.106,338.213z"/>
									<path style="fill:#BA655C;" d="M503.905,431.376c0.723-0.771,0.745-1.946,0.704-3.001c-0.032-0.834-0.17-1.798-0.679-2.392
										c0.702,0.46,1.47,0.818,2.274,1.055c0.314,0.092,0.649,0.167,0.964,0.079c0.525-0.147,0.829-0.691,1.004-1.208
										c0.962-2.833-0.515-6.275-3.23-7.53c1.337-0.885,1.661-2.804,1.137-4.32c-0.456-1.317-1.481-2.45-2.79-2.93
										c-1.309-0.48-2.878-0.255-3.932,0.657c-1.423,1.231-1.667,3.31-1.814,5.186c-1.556-2.183-4.242-3.512-6.921-3.424
										c-0.559,0.018-1.133,0.1-1.618,0.379c-0.835,0.481-1.253,1.449-1.509,2.378c-0.441,1.595-0.563,3.329,0.006,4.883
										c0.463,1.263,1.404,2.169,2.505,2.88c-1.69,2.157-1.029,5.693,1.751,6.661c2.144,0.746,4.775-0.652,5.357-2.845
										c-0.527,1.527,1.057,2.934,2.527,3.605C501.025,432.123,502.864,432.487,503.905,431.376z"/>
									<path style="fill:#BA655C;" d="M436.695,484.227c1.995,0.532,4.479-0.714,4.7-2.767c0.061,1.763,1.521,3.374,3.27,3.608
										c1.748,0.234,3.58-0.935,4.104-2.62c0.442-1.423-0.1-3.063-1.225-4.022c1.313,0.614,3.164-0.022,3.928-1.344
										c0.905-1.569,0.542-3.609-0.384-5.166c-0.654-1.1-1.611-2.07-2.822-2.482c-0.823-0.281-1.766-0.249-2.552,0.098
										c1.389-1.401,1.534-4.01,0.213-5.591c-1.588-1.9-4.57-2.22-6.803-1.147c-1.075,0.517-2.061,1.281-2.941,2.209
										l-2.066,17.589C434.823,483.361,435.686,483.958,436.695,484.227z"/>
									<path style="fill:#BA655C;" d="M527.693,480.225c0.569-0.848,0.594-1.965,0.333-2.952c-0.401-1.52-1.543-2.918-3.077-3.259
										c-1.534-0.341-3.344,0.673-3.548,2.231c-0.393-1.5-1.432-2.864-2.865-3.457c-1.434-0.593-3.241-0.304-4.286,0.842
										c-1.045,1.146-1.111,3.118-0.014,4.215c-0.938-0.854-2.554-0.459-3.36,0.52c-0.807,0.979-0.986,2.325-1.003,3.593
										c-0.05,3.757,1.697,6.627,5.483,7.362c1.403,0.272,8.872,1.137,6.309-1.535c1.307,1.114,3.299,1.931,4.793,0.809
										c0.772-0.581,1.161-1.561,1.245-2.524c0.176-2.008-0.918-4.072-2.678-5.053
										C525.912,481.52,527.124,481.073,527.693,480.225z"/>
									<path style="fill:#BA655C;" d="M437.137,366.408c1.431,1.124,4.086,0.572,4.333-1.23c-0.489,1.657,0.914,3.501,2.625,3.735
										c1.712,0.234,3.428-0.922,4.14-2.496c0.713-1.574,0.535-3.447-0.163-5.028c2.307,2.203,6.09,2.946,8.801,1.264
										c2.711-1.682,3.599-5.927,1.406-8.244c-1.421-1.501-3.675-1.927-5.732-1.722c-0.995,0.1-1.988,0.344-2.902,0.747
										c1.299-1.034,2.32-2.306,2.274-3.905c-0.074-2.62-3.235-4.246-5.806-3.738c-0.77,0.152-1.498,0.4-2.193,0.711
										c-2.746,4.968-5.502,10.934-8.085,18.066C436.116,365.284,436.527,365.928,437.137,366.408z"/>
								</g>
							</g>
							<g>
								<path style="fill:#4E4E4E;" d="M446.943,420.096c-0.199,0-0.389-0.112-0.479-0.304c-6.757-14.375-3.88-32.499,6.995-44.074
									c0.202-0.214,0.536-0.223,0.748-0.023c0.213,0.2,0.223,0.535,0.023,0.748c-10.585,11.267-13.385,28.908-6.809,42.899
									c0.125,0.265,0.011,0.58-0.253,0.704C447.095,420.08,447.019,420.096,446.943,420.096z"/>
								<path style="fill:#4E4E4E;" d="M526.034,412.34c-0.251,0-0.474-0.18-0.52-0.437c-2.418-13.621-5.83-27.193-10.146-40.34
									c-0.092-0.277,0.06-0.577,0.337-0.668c0.276-0.093,0.577,0.059,0.668,0.338c4.332,13.193,7.757,26.814,10.183,40.484
									c0.052,0.288-0.141,0.562-0.429,0.613C526.096,412.337,526.065,412.34,526.034,412.34z"/>
								<path style="fill:#4E4E4E;" d="M519.31,383.378c-0.137,0-0.275-0.053-0.378-0.159c-3.331-3.41-6.873-6.693-10.529-9.757
									c-0.224-0.188-0.253-0.522-0.065-0.746c0.188-0.223,0.522-0.253,0.745-0.066c3.683,3.087,7.251,6.394,10.606,9.828
									c0.205,0.209,0.201,0.544-0.008,0.749C519.576,383.327,519.443,383.378,519.31,383.378z"/>
								<path style="fill:#4E4E4E;" d="M461.367,470.533c-0.523,0-1.043-0.028-1.56-0.084c-0.29-0.032-0.501-0.293-0.469-0.583
									c0.031-0.29,0.318-0.499,0.583-0.469c4.855,0.527,9.987-1.615,15.716-6.546c5.075-4.37,9.413-9.485,12.895-15.202
									c0.152-0.25,0.479-0.328,0.727-0.177c0.25,0.153,0.329,0.478,0.177,0.728c-3.539,5.812-7.949,11.011-13.108,15.454
									C470.963,468.271,466.051,470.533,461.367,470.533z"/>
								<path style="fill:#4E4E4E;" d="M489.347,465.987c-0.031,0-0.062-0.003-0.093-0.008c-0.288-0.051-0.48-0.325-0.429-0.613
									c1.039-5.885,2.948-11.566,5.671-16.885c0.134-0.26,0.455-0.362,0.712-0.229c0.26,0.133,0.364,0.452,0.23,0.712
									c-2.676,5.225-4.551,10.806-5.572,16.587C489.822,465.806,489.598,465.987,489.347,465.987z"/>
							</g>
						</g>
						<g>
							<path style="fill:#996A52;" d="M553.309,403.217c0,0,13.248,39.135,12.349,51.764c-0.899,12.629-40.886,61.644-40.886,61.644
								l-26.786-3.468c0,0,27.222-27.139,38.104-55.536c1.271-3.318,1.567-6.924,0.841-10.402c-1.89-9.06-6.091-27.832-9.735-34.485
								C527.196,412.733,541.328,404.442,553.309,403.217z"/>
						</g>
					</g>
				</g>
				<g>
					<path style="fill:#D06F61;" d="M508.434,173.162c8.678-10.366,15.331-50.169,9.835-63.851
						c-5.496-13.683-98.638-19.073-113.68-3.731c-9.834,10.03-1.94,54.784,4.628,65.51c3.396,5.544,14.632,8.763,28.399,10.218
						l18.781,28.023l-4.108-27.132C476.934,182.719,503.637,178.892,508.434,173.162z"/>
					<g>
						<path style="fill:#FFFFFF;" d="M429.65,118.858v14.116h-2.567v-12.076h-6.562v12.076h-2.539v-14.116H429.65z"/>
						<path style="fill:#FFFFFF;" d="M433.829,123.465c0-1.807-0.059-3.266-0.119-4.607h2.306l0.116,2.42h0.057
							c1.049-1.722,2.712-2.741,5.018-2.741c3.413,0,5.977,2.885,5.977,7.174c0,5.075-3.09,7.583-6.417,7.583
							c-1.867,0-3.498-0.817-4.344-2.218h-0.059v7.671h-2.536V123.465z M436.366,127.227c0,0.38,0.059,0.729,0.116,1.05
							c0.468,1.781,2.014,3.004,3.85,3.004c2.712,0,4.289-2.216,4.289-5.453c0-2.828-1.489-5.251-4.201-5.251
							c-1.75,0-3.384,1.254-3.878,3.18c-0.088,0.32-0.176,0.701-0.176,1.05V127.227z"/>
						<path style="fill:#FFFFFF;" d="M452.795,118.858v5.949c0,2.247-0.029,3.645-0.145,5.659l0.088,0.029
							c0.845-1.722,1.342-2.712,2.275-4.346l4.403-7.291h3.004v14.116h-2.449v-5.98c0-2.304,0.057-3.501,0.174-5.776h-0.088
							c-0.902,1.81-1.515,2.947-2.332,4.377c-1.342,2.187-2.888,4.899-4.405,7.379h-2.945v-14.116H452.795z"/>
						<path style="fill:#FFFFFF;" d="M466.541,119.031c0.993-0.173,2.828-0.321,4.491-0.321c2.363,0,6.272,0.38,6.272,3.529
							c0,1.75-1.342,2.831-2.947,3.18v0.057c2.071,0.292,3.588,1.461,3.588,3.501c0,3.705-4.667,4.17-7.438,4.17
							c-1.574,0-3.208-0.116-3.966-0.173V119.031z M468.961,131.281c0.729,0.088,1.254,0.119,2.071,0.119
							c1.722,0,4.289-0.409,4.289-2.451c0-2.042-2.042-2.479-4.493-2.479h-1.867V131.281z M468.991,124.778h1.924
							c1.895,0,3.85-0.556,3.85-2.218c0-1.399-1.225-2.071-3.79-2.071c-0.845,0-1.37,0.059-1.983,0.116V124.778z"/>
						<path style="fill:#FFFFFF;" d="M482.618,126.381c0.059,3.472,2.275,4.899,4.842,4.899c1.838,0,2.945-0.32,3.909-0.729
							l0.437,1.838c-0.905,0.408-2.451,0.876-4.695,0.876c-4.346,0-6.942-2.859-6.942-7.118c0-4.258,2.508-7.611,6.621-7.611
							c4.607,0,5.833,4.054,5.833,6.65c0,0.525-0.059,0.933-0.088,1.195H482.618z M490.144,124.543
							c0.029-1.631-0.672-4.17-3.558-4.17c-2.596,0-3.733,2.391-3.938,4.17H490.144z"/>
						<path style="fill:#FFFFFF;" d="M505.232,118.858v2.04h-4.406v12.076h-2.536v-12.076h-4.405v-2.04H505.232z"/>
					</g>
					<g>
						
							<text transform="matrix(1 0 0 1 436.3655 159.7088)" style="fill:#FFFFFF; font-family:'Montserrat-Regular'; font-size:15.4095px;">privet</text>
					</g>
				</g>
			</g>
			<g>
				<g>
					<g>
						<g>
							<path style="fill:#E8BB85;" d="M642.327,266.389l-1.622,22.165c0,0-4.07,3.178-11.854,8.415
								c-7.784,5.237,2.66,35.205,25.802,31.715c23.142-3.49,24.538-32.242,24.538-32.242s-4.721-5.77-13.529-8.224l5.586-38.079
								L642.327,266.389z"/>
							<path style="fill:#E8BB85;" d="M610.672,189.031c-0.95,2.355-1.556,4.834-1.786,7.363
								c-1.395,15.316-4.748,70.34,18.612,74.006c16.542,2.596,30.917-5.123,39.627-11.554c5.553-4.1,9.229-10.25,10.263-17.074
								l4.986-32.893c0.263-1.737,0.351-3.496,0.261-5.25l0,0c-0.555-10.875-7.794-20.267-18.169-23.573l-20.303-6.471
								c-1.503-0.479-3.046-0.821-4.611-1.022l-1.125-0.144c-11.793-1.513-23.121,5.122-27.569,16.148L610.672,189.031z"/>
							<path style="fill:#6D6A6A;" d="M658.268,194.661L661.924,223l4.6,1.175c0,0-0.893-11.16,6.308-10.326
								c7.201,0.834,6.689,25.136-4.29,22.583c-1.011,7.052-0.041,13.779,1.727,20.375c17.016-16.199,15.364-64.688,15.364-64.688
								L658.268,194.661z"/>
							<path style="fill:#3F3F3F;" d="M641.905,150.333c-39.66,0-43.456,49.509-43.456,49.509l15.608-1.198
								c1.597-8.902,7.808-22.026,7.808-22.026c-2.781,7.635-1.899,21.68-1.899,21.68h15.31c0.539-3.061,3.688-7.861,5.475-10.397
								c-0.253,5.364,1.153,9.792,1.153,9.792l49.224-3.915C691.129,193.778,681.566,150.333,641.905,150.333z"/>
							<path style="fill:#CFA77D;" d="M669.95,230.54c-0.092,0-0.186-0.025-0.27-0.079c-0.232-0.149-0.3-0.458-0.151-0.69
								c0.874-1.363,0.78-3.32-0.205-4.604c-0.046,0.031-0.098,0.055-0.155,0.069c-0.264,0.069-0.54-0.092-0.609-0.359
								c-0.055-0.216,0.004-0.444,0.159-0.614c0.169-0.186,0.429-0.279,0.671-0.235c0.341,0.056,0.548,0.308,0.636,0.416
								c1.336,1.627,1.481,4.094,0.345,5.866C670.276,230.459,670.115,230.54,669.95,230.54z"/>
						</g>
						<g>
							<path style="fill:#3F3F3F;" d="M652.127,213.173c-2.913-4.773-8.625-6.143-13.137-3.925
								c-1.366,0.544-2.606,1.492-3.619,2.953c-0.022,0.028-0.047,0.051-0.069,0.079c-0.009,0.012-0.01,0.025-0.018,0.037
								c-0.027,0.04-0.058,0.072-0.085,0.113c-0.271,0.416,0.254,0.77,0.618,0.69c5.305-1.159,10.645-0.856,15.801,0.826
								C652.069,214.094,652.33,213.505,652.127,213.173z"/>
							<path style="fill:#3F3F3F;" d="M612.052,212.781c2.576-4.762,7.396-6.12,11.108-3.898c1.127,0.546,2.138,1.495,2.943,2.956
								c0.018,0.028,0.038,0.051,0.055,0.079c0.008,0.012,0.008,0.025,0.014,0.037c0.022,0.04,0.046,0.072,0.068,0.113
								c0.215,0.416-0.235,0.768-0.537,0.688c-4.406-1.167-8.885-0.873-13.248,0.798
								C612.075,213.701,611.874,213.112,612.052,212.781z"/>
							<g>
								<path style="fill:#3F3F3F;" d="M621.704,220.185c0,1.916-1.007,3.469-2.25,3.469s-2.25-1.553-2.25-3.469
									c0-1.916,1.007-3.469,2.25-3.469S621.704,218.269,621.704,220.185z"/>
								<path style="fill:#FFFFFF;" d="M620.517,218.299c0,0.397-0.322,0.719-0.719,0.719c-0.397,0-0.719-0.322-0.719-0.719
									c0-0.397,0.322-0.719,0.719-0.719C620.195,217.58,620.517,217.902,620.517,218.299z"/>
							</g>
							<g>
								<path style="fill:#3F3F3F;" d="M644.642,220.185c0,1.916-1.007,3.469-2.25,3.469c-1.243,0-2.25-1.553-2.25-3.469
									c0-1.916,1.007-3.469,2.25-3.469C643.634,216.716,644.642,218.269,644.642,220.185z"/>
								<path style="fill:#FFFFFF;" d="M643.454,218.299c0,0.397-0.322,0.719-0.719,0.719c-0.397,0-0.719-0.322-0.719-0.719
									c0-0.397,0.322-0.719,0.719-0.719C643.133,217.58,643.454,217.902,643.454,218.299z"/>
							</g>
							<path style="fill:#CFA77D;" d="M630.713,241.868c-0.865,0.001-1.707-0.614-2.089-1.39c-0.458-0.932-0.396-1.994-0.346-2.849
								l0.622-10.656c0.016-0.275,0.24-0.488,0.528-0.47c0.275,0.016,0.486,0.253,0.47,0.528l-0.622,10.656
								c-0.045,0.775-0.096,1.654,0.246,2.349c0.277,0.563,0.983,1.004,1.512,0.762c0.252-0.117,0.548-0.007,0.664,0.243
								c0.116,0.25,0.007,0.548-0.243,0.663C631.213,241.818,630.962,241.868,630.713,241.868z"/>
							<path style="fill:#FFFFFF;" d="M621.838,249.71c-0.613-1.273-0.746-3.085,0.45-3.837c0.672-0.422,1.555-0.343,2.291-0.048
								c0.736,0.295,1.379,0.778,2.073,1.162c2.137,1.18,4.803,1.356,7.076,0.466c1.211-0.474,2.307-1.228,3.555-1.59
								c1.248-0.362,2.788-0.219,3.572,0.818c0.516,0.683,0.592,1.629,0.355,2.452c-0.237,0.823-0.752,1.539-1.33,2.171
								C635.297,256.315,625.052,256.38,621.838,249.71z"/>
						</g>
					</g>
					<g>
						<path style="fill:#E8BB85;" d="M602.093,380.139l-3.102,60.393c-0.091,1.765-0.429,3.508-1.005,5.178l-19.535,56.67
							l21.89,1.751l20.723-88.294v-37.141L602.093,380.139z"/>
						<g>
							<g>
								<path style="fill:#4F5A7C;" d="M725.219,379.856c0,0-8.884-57.174-46.028-83.414c0,0-12.481,13.811-26.797,16.01
									c-1.807,5.246-3.414,10.562-4.769,15.943c-1.697-5.341-3.089-10.776-4.204-16.268c-16.016-3.595-14.57-15.159-14.57-15.159
									s-22.541,17.22-28.351,82.887c0,0,6.166-0.504,9.923,4.933c0,0-10.097,98.323-15.634,113.75c0,0,56.875,24.63,116.094-0.822
									c0,0,6.203-57.232-3.096-109.557C707.786,388.16,717.957,384.444,725.219,379.856z"/>
								<g>
									<path style="fill:#3E4860;" d="M666.767,435.327c1.525,4.93,3.513,9.716,5.929,14.275c0.48-5.174,0.31-10.407-0.505-15.539
										c5.023,2.994,10.407,5.382,15.998,7.095c-3.983-2.865-7.778-5.99-11.355-9.348c3.283-5.943,7.078-11.604,11.327-16.899
										c-5.575,1.384-9.334,6.44-12.615,11.155c0.213-7.922,0.935-15.829,2.159-23.659c-3.654,6.386-6.541,13.21-8.578,20.28
										c-5.694-8.154-11.389-16.308-17.083-24.462c1.169,7.679,3.157,15.203,5.378,22.637c0.502,1.68,3.691,8.804,1.42,8.908
										c-1.963,0.09-7.39-5.655-9.009-6.91c-3.021-2.34-6.109-4.719-9.712-5.993c4.276,5.104,8.551,10.207,12.827,15.311
										c-4.364,0.67-8.693,1.564-12.965,2.679c6.484-0.192,12.968-0.384,19.452-0.577c-2.431,4.697-3.965,9.857-4.494,15.119
										C658.883,444.709,662.825,440.018,666.767,435.327z"/>
									<path style="fill:#3E4860;" d="M610.03,371.39c0.301-2.503,0.602-5.006,0.903-7.509c4.17,3.094,8.339,6.188,12.509,9.282
										c-1.056-3.84-3.139-7.393-5.974-10.19c5.615-1.801,11.23-3.602,16.845-5.403c-5.769-1.362-11.748-1.828-17.658-1.375
										c3.114-1.857,6.229-3.713,9.343-5.57c4.522-2.695,9.131-5.427,14.247-6.668c-7.283-0.375-14.616,0.247-21.732,1.844
										c6.128-4.284,12.377-8.393,18.738-12.323c-9.588,2.469-18.865,6.145-27.543,10.913c3.59-4.437,6.944-9.065,10.043-13.858
										c-5.156,3.615-9.72,8.061-13.505,13.093c-1.23,5.055-2.362,10.612-3.343,16.71
										C606.356,363.156,608.929,367.066,610.03,371.39z"/>
									<path style="fill:#3E4860;" d="M710.983,496.728c-0.006-0.059-0.009-0.123-0.016-0.181
										c-1.176-9.815-2.351-19.63-3.527-29.445c-0.567,5.745-1.133,11.491-1.7,17.236c-1.01-8.26-2.775-16.428-5.265-24.369
										c-1.427,8.686-1.234,17.636,0.566,26.253c-5.865-10.353-12.085-20.504-18.647-30.43
										c2.683,10.866,6.832,21.37,12.299,31.137c-7.578-5.698-15.156-11.395-22.735-17.093
										c5.719,8.598,12.83,16.267,20.972,22.619c-7.36-1.827-14.719-3.655-22.079-5.482c8.863,3.582,17.247,8.344,24.874,14.106
										c0.524,0.396,1.132,0.956,1.794,1.58c4.426-1.384,8.887-3.017,13.363-4.941
										C710.883,497.717,710.92,497.376,710.983,496.728z"/>
									<path style="fill:#3E4860;" d="M685.549,338.593c5.322,2.143,10.865,3.739,16.512,4.755
										c-4.443,0.49-8.744,2.164-12.367,4.781l-0.662,0.222c0.117,0.001,0.234-0.003,0.351-0.003
										c-0.037,0.027-0.076,0.051-0.113,0.079l0.263-0.08c4.392,0.009,8.784-0.238,13.146-0.751
										c-2.975,2.423-5.545,5.342-7.572,8.6c3.875-2.209,7.964-4.042,12.191-5.466c-2.149,3.415-4.333,6.915-5.23,10.849
										c3.129-2.754,6.259-5.509,9.388-8.263c-0.506,3.335-0.761,6.709-0.763,10.082c2.328-3.767,4.655-7.534,6.983-11.3
										c-1.95-5.392-4.349-11.2-7.274-17.076c-5.998-2.178-12.264-3.618-18.618-4.211c4.614,3.541,9.448,6.795,14.465,9.738
										C699.488,338.922,692.495,338.261,685.549,338.593z"/>
									<path style="fill:#3E4860;" d="M612.246,499.459c-1.566-3.504-3.133-7.007-4.699-10.511
										c5.658,2.536,11.315,5.071,16.973,7.607c-2.907-4.25-7.16-7.564-11.992-9.344c7.198-1.504,14.329-3.325,21.366-5.457
										c-7.611-0.875-15.305-1.017-22.943-0.423c6.408-4.857,12.001-10.785,16.477-17.465c-7.312,2.673-14.119,6.72-19.959,11.868
										c2.684-4.219,5.368-8.438,8.053-12.657c-4.401,2.711-8.584,5.776-12.498,9.151c-1.077,0.928-2.34,1.946-3.61,3.036
										c-0.863,5.636-1.71,10.657-2.513,14.713C602.11,493.228,610.516,495.588,612.246,499.459z"/>
								</g>
							</g>
							<g>
								<path style="fill:#4E4E4E;" d="M616.608,345.701c-0.276-0.088-0.576,0.067-0.664,0.345
									c-3.23,10.218-5.054,20.828-5.421,31.536c-0.009,0.292,0.219,0.537,0.511,0.547c0.006,0.001,0.012,0.001,0.019,0.001
									c0.284,0,0.519-0.225,0.529-0.511c0.364-10.611,2.171-21.126,5.372-31.252C617.041,346.086,616.887,345.789,616.608,345.701
									z"/>
								<path style="fill:#4E4E4E;" d="M684.405,391.065c-6.411-12.623-9.78-26.78-9.74-40.941c0.001-0.293-0.236-0.53-0.528-0.531
									h-0.001c-0.291,0-0.528,0.236-0.529,0.528c-0.006,2.001,0.063,4.002,0.191,5.999l-5.557-4.774
									c-0.222-0.19-0.555-0.165-0.746,0.057c-0.191,0.222-0.165,0.556,0.056,0.746l6.114,5.252c0.07,0.059,0.151,0.09,0.234,0.108
									c0.94,11.824,4.193,23.462,9.564,34.036c0.093,0.184,0.279,0.289,0.471,0.289c0.081,0,0.163-0.019,0.24-0.057
									C684.434,391.644,684.538,391.325,684.405,391.065z"/>
								<path style="fill:#4E4E4E;" d="M653.217,378.948c-0.237-0.168-0.568-0.115-0.738,0.124
									c-5.812,8.154-13.382,15.253-21.89,20.53c-1.076,0.667-2.214,1.31-3.394,1.223c-0.284-0.023-0.545,0.197-0.567,0.488
									c-0.022,0.292,0.197,0.546,0.489,0.567c0.098,0.007,0.195,0.011,0.293,0.011c1.376,0,2.645-0.712,3.738-1.39
									c8.626-5.349,16.302-12.547,22.194-20.815C653.51,379.448,653.454,379.117,653.217,378.948z"/>
								<path style="fill:#4E4E4E;" d="M656.93,379.637c-0.277-0.09-0.577,0.057-0.67,0.334c-1.417,4.25-3.696,8.303-6.59,11.721
									c-0.188,0.223-0.161,0.557,0.062,0.746c0.099,0.084,0.221,0.125,0.342,0.125c0.15,0,0.3-0.064,0.404-0.187
									c2.98-3.52,5.326-7.694,6.786-12.071C657.357,380.029,657.207,379.73,656.93,379.637z"/>
							</g>
						</g>
						<path style="fill:#E8BB85;" d="M718.705,383.451c-11.963,6.086-32.693,10.215-32.693,10.215
							c0.332,4.451,8.31,18.866,8.31,18.866c-5.303-1.317-51.455,16.923-53.485,17.727c-1.431-0.195-2.853-0.624-4.212-0.998
							c-2.563-0.706-5.151-1.175-7.79-1.505c-2.774-0.347-5.631-0.419-8.17,0.906c-2.039,1.064-3.579,2.989-4.882,4.839
							c-1.392,1.979-2.652,4.141-3.384,6.457c-0.303,0.958-0.52,1.956-0.495,2.966c0.03,1.2,0.472,2.382,0.953,3.466
							c1.05,2.366,2.463,4.592,3.709,6.859c0.603,1.098,1.258,2.178,2.137,3.08c0.881,0.904,1.957,1.35,3.139,1.735
							c1.506,0.49,3.044,0.855,4.576,1.255c1.203,0.314,2.488,0.815,3.745,0.505c2.044-0.503,2.133-3.042,2.478-4.729
							c0.504-0.005,1.002-0.03,1.468-0.096c1.574-0.222,3.194-0.906,4.095-2.21c3.399-4.923,5.478-7.653,6.206-8.541
							c9.922-0.799,56.466-4.814,69.247-10.76C727.989,426.82,718.705,383.451,718.705,383.451z"/>
					</g>
				</g>
				<g>
					<path style="fill:#4F5A7C;" d="M705.928,65.509c-4.596-11.443-82.493-15.951-95.072-3.121
						c-8.224,8.388-1.623,45.817,3.871,54.787c5.262,8.592,32.989,10.529,55.093,8.709l-3.981,17.616l18.312-19.499
						c6.798-1.307,11.845-3.053,13.552-5.092C704.96,110.24,710.524,76.952,705.928,65.509z"/>
					<g>
						<path style="fill:#FFFFFF;" d="M637.26,77.372c-0.804,1.414-1.658,2.707-2.536,3.805c-0.22-0.342-0.733-0.975-1.051-1.317
							c2.294-2.733,4.489-7.367,5.879-11.879l2.026,0.61c-0.097,0.242-0.318,0.292-0.586,0.268c-0.659,1.95-1.44,3.927-2.318,5.78
							l0.707,0.197c-0.048,0.145-0.169,0.268-0.487,0.292v15.514h-1.635V77.372z M653.969,77.958
							c0.195-0.904,0.439-2.27,0.657-3.587h-4.854v14.247c0,1.756-0.634,2.074-4.048,2.074c-0.099-0.489-0.342-1.196-0.61-1.684
							c0.61,0.024,1.194,0.024,1.658,0.024h0.975c0.318,0,0.415-0.097,0.415-0.413V74.371h-3.929
							c-0.731,1.782-1.585,3.39-2.512,4.61c-0.292-0.292-0.852-0.781-1.243-0.999c1.756-2.268,3.196-6.097,4.026-9.929l2.024,0.538
							c-0.05,0.171-0.22,0.268-0.536,0.242c-0.318,1.343-0.707,2.709-1.172,4.002h10.781l0.854,0.024
							c0,0.415-0.584,3.609-1.096,5.366L653.969,77.958z M646.164,78.762c-0.073,0.171-0.244,0.268-0.538,0.268
							c-0.78,3.001-2.121,6.195-3.658,8.147c-0.316-0.268-0.902-0.634-1.293-0.83c1.49-1.853,2.757-4.999,3.514-8.121
							L646.164,78.762z M655.018,86.983c-0.465-2.294-1.879-5.806-3.343-8.415l1.44-0.512c1.537,2.61,2.975,6.05,3.464,8.342
							L655.018,86.983z"/>
						<path style="fill:#FFFFFF;" d="M666.691,73.078l0.927,0.244l-0.147,0.342c-0.342,4.318-1.12,7.782-2.342,10.489
							c1.196,0.928,2.221,1.829,2.88,2.659l-1.001,1.341c-0.61-0.781-1.537-1.658-2.61-2.536c-1.243,2.268-2.878,3.926-4.83,5.098
							c-0.218-0.415-0.683-1.001-1.023-1.343c1.829-0.975,3.365-2.56,4.584-4.757c-0.902-0.681-1.853-1.317-2.781-1.877
							l-0.292,1.072l-1.39-0.731c0.61-2.147,1.367-5.245,2.074-8.392h-2.439v-1.537h2.781c0.389-1.829,0.731-3.585,1.025-5.146
							l2,0.244c-0.026,0.171-0.171,0.268-0.489,0.292c-0.268,1.39-0.61,2.975-0.975,4.61h3.756L666.691,73.078z M662.301,74.688
							c-0.512,2.268-1.074,4.562-1.585,6.562c1.023,0.56,2.072,1.243,3.096,1.927c0.977-2.268,1.684-5.099,2.026-8.489H662.301z
							 M680.911,78.883v1.587h-5.877v8.074c0,1.877-0.733,2.171-5.051,2.121c-0.097-0.439-0.365-1.146-0.61-1.634
							c1.172,0.026,2.244,0.05,2.927,0.05c0.83,0,1.073,0,1.073-0.512V80.47H667.4v-1.587h5.974v-4.145l0.806,0.048
							c1.267-1.072,2.61-2.61,3.609-3.976h-9.39v-1.535h10.636l0.316-0.099l1.293,0.806c-0.074,0.121-0.242,0.195-0.389,0.242
							c-1.269,1.805-3.367,4.123-5.22,5.634v3.025H680.911z"/>
					</g>
					<g>
						<text transform="matrix(1 0 0 1 637.6278 111.8345)"><tspan x="0" y="0" style="fill:#FFFFFF; font-family:'Montserrat-Regular'; font-size:12.8872px;">N</tspan><tspan x="10.478" y="0" style="fill:#FFFFFF; font-family:'MyriadPro-Regular'; font-size:12.8872px;">i</tspan><tspan x="13.492" y="0" style="fill:#FFFFFF; font-family:'Montserrat-Regular'; font-size:12.8872px;"> hǎo</tspan></text>
					</g>
				</g>
			</g>
			<g>
				<g>
					<path style="fill:#694157;" d="M374.334,102.075c-5.361-13.347-96.22-18.605-110.892-3.64
						c-9.593,9.784-1.893,53.441,4.515,63.904c5.922,9.669,36.238,12.115,61.52,10.368l-3.635,21.968l21.248-24.028
						c8.868-1.554,15.508-3.725,17.652-6.286C373.206,154.25,379.696,115.422,374.334,102.075z"/>
					<g>
						<path style="fill:#FFFFFF;" d="M296.788,111.133c0.416-0.078,0.753-0.207,0.753-0.519c0-0.131-0.078-0.312-0.234-0.519
							c-0.232-0.181-0.337-0.31-0.337-0.413c0-0.078,0.105-0.131,0.337-0.131c0.778,0,1.711,0.443,1.711,0.831
							c0,0.283-0.312,0.544-0.363,0.852c3.003,0.7,4.326,2.565,4.326,4.457c0,2.331-2.073,4.61-5.439,4.61
							c-3.575,0-5.674-2.174-5.674-4.61C291.867,113.67,293.422,111.652,296.788,111.133z M293.499,115.691
							c0,1.761,1.32,3.497,3.963,3.497c2.59,0,3.885-1.736,3.885-3.497c0-1.736-1.295-3.522-3.885-3.522
							C294.82,112.169,293.499,113.955,293.499,115.691z M298.836,124.627c-0.027-0.491-0.622-0.725-1.943-1.114
							c-0.285-0.078-0.493-0.181-0.493-0.312c0-0.127,0.234-0.257,0.829-0.363c1.192,0,2.255,0.105,2.746,0.181
							c0.466,0.106,0.569,0.261,0.569,0.494c0,0.181-0.05,0.388-0.078,0.675c0,1.139,0,2.666,0.028,3.573
							c0.025,0.595,0.363,0.829,1.267,0.882l4.689-0.053c1.943-0.154,1.01-0.751,3.316-0.751c0.856,0,1.942,0.103,1.942,0.879
							c0,0.312-0.257,0.572-0.698,0.572h-9.352c-1.734-0.027-2.693-0.441-2.797-1.736L298.836,124.627z M307.59,109.294
							c0-0.287-0.675-0.751-2.227-1.426c-0.39-0.129-0.597-0.285-0.597-0.388c0-0.156,0.31-0.259,0.932-0.285
							c0.103,0,3.653,0.441,3.653,1.295c0,0.181-0.103,0.388-0.103,0.647l-0.025,8.133c0.361-0.025,0.776,0,1.164-0.05
							c1.192-0.234,0.647-0.726,2.643-0.726c0.517,0,1.477,0,1.477,0.7c0,0.335-0.285,0.645-0.751,0.645l-4.56,0.105
							c-0.025,4.686-0.181,5.853-0.441,6.578c-0.232,0.491-0.517,0.879-0.751,0.879c-0.232,0-0.388-0.31-0.413-1.164V109.294z"/>
						<path style="fill:#FFFFFF;" d="M319.65,111.831c0-0.491-1.063-0.829-2.046-1.114c-0.259-0.078-0.544-0.181-0.544-0.335
							c0-0.131,0.207-0.262,0.801-0.415c3.084,0.154,3.421,0.466,3.421,0.879c0,0.131-0.027,0.262-0.027,0.416v6.009
							c-0.025,0.388,0.103,0.595,0.829,0.595c0.985,0,5.051-1.008,7.797-2.563c0.232-0.103,0.413-0.156,0.519-0.156
							c0.051,0,0.076,0,0.076,0.053c0,0.076-0.128,0.232-0.438,0.492c-3.187,2.149-8.264,3.756-9.118,3.756
							c-0.753,0-1.088-1.32-1.192-1.864L319.65,111.831z M330.476,121.753c0.26-0.053,0.416-0.234,0.416-0.441
							c0-0.156-0.078-0.337-0.259-0.491c-0.181-0.156-0.259-0.285-0.259-0.363c0-0.103,0.078-0.129,0.234-0.129
							c0.466,0,1.58,0.413,1.58,0.776c0,0.207-0.181,0.413-0.234,0.751c2.877,0.466,4.197,2.28,4.197,4.119
							c0,2.175-1.865,4.376-5.102,4.376c-3.394,0-5.207-2.202-5.207-4.376c0-1.892,1.398-3.782,4.379-4.145L330.476,121.753z
							 M327.292,125.922c0,1.711,1.27,3.394,3.807,3.394c2.331,0,3.497-1.683,3.497-3.394c0-1.683-1.166-3.366-3.497-3.366
							C328.561,122.556,327.292,124.239,327.292,125.922z M334.674,109.163c-0.025-0.257-1.088-0.907-2.305-1.451
							c-0.259-0.076-0.725-0.232-0.725-0.388c0-0.181,0.648-0.337,0.804-0.337c0.544,0,4.014,0.519,4.014,1.35
							c0,0.232-0.154,0.464-0.181,0.801l-0.051,7.175c0,4.351-0.337,5.129-0.854,5.855c-0.105,0.154-0.209,0.207-0.287,0.207
							c-0.257,0-0.413-0.597-0.413-1.607v-3.056c-1.192,0.028-2.358,0.129-3.212,0.181c-0.466,0.103-0.519,0.31-0.854,0.31
							c-0.466,0-2.28-0.802-2.28-1.036c0-0.103,0.156-0.129,0.441-0.129c0.259,0,1.476,0.051,1.761,0.051
							c1.217,0,2.487-0.076,4.144-0.181v-4.48c-1.554,0.025-2.693,0.103-3.315,0.156c-0.622,0.076-0.648,0.335-0.985,0.335
							c-0.388,0-2.099-0.648-2.099-1.061c0-0.08,0.105-0.131,0.338-0.131c0.131,0,0.285,0.025,0.491,0.051
							c0.597,0.027,1.088,0.027,1.582,0.027c1.268,0,2.305-0.053,3.988-0.129V109.163z"/>
					</g>
					<g>
						
							<text transform="matrix(1 0 0 1 285.0418 148.5173)" style="fill:#FFFFFF; font-family:'Montserrat-Regular'; font-size:13.6851px;">annyeong</text>
					</g>
				</g>
				<g>
					<path style="fill:#353535;" d="M352.684,333.781c-3.454-7.25-10.83-11.546-13.789-19.162
						c-3.716-9.564-2.027-20.054-0.618-29.891c1.367-9.544,2.315-19.16,1.58-28.806c-1.239-16.264-7.325-32.28-20.15-42.873
						c-0.103-0.085-0.208-0.15-0.316-0.204c-0.205-0.13-0.449-0.22-0.745-0.235c-13.217-0.692-26.441,4.797-35.989,13.848
						c-10.929,10.36-14.549,25.126-17.927,39.26c-4.058,16.977-9.743,33.464-14.338,50.29c-3.567,13.061-9.762,31.171-1.567,43.715
						c7.518,11.506,24.67,15.463,37.065,18.592c7.857,1.983,15.85,3.405,23.904,4.285c7.235,0.791,14.988,1.664,22.209,0.305
						c14.104-2.654,19.428-17.465,22.002-30.017C355.306,346.555,355.526,339.747,352.684,333.781z"/>
					<path style="fill:#F1CE9D;" d="M326.623,231.207c2.429,5.9,3.624,12.235,3.77,18.614c0.354,15.488-0.202,51.565-12.904,54.294
						c-16.21,3.483-31.356-2.802-37.898-9.472c-6.543-6.669-14.093-23.328-14.093-23.328s-12.291-18.863,2.147-31.951
						C280.819,227.422,312.622,197.196,326.623,231.207z"/>
					<path style="fill:#F1CE9D;" d="M285.222,286.724l1.89,39.106c0,0-1.399,0.252-6.333,6.2
						c-4.934,5.948,12.447,24.927,29.478,14.189c17.031-10.738,11.538-18.443,11.538-18.443s-6.679-5.119-13.329-4.451
						l-1.764-20.503L285.222,286.724z"/>
					<path style="fill:#91694D;" d="M276.448,271.655c-0.474,0-0.96-0.208-1.327-0.582c-0.334-0.339-0.573-0.806-0.71-1.389
						c-0.265-1.118-0.097-2.337,0.458-3.343c0.141-0.256,0.465-0.348,0.718-0.208c0.256,0.142,0.349,0.464,0.208,0.719
						c-0.43,0.779-0.559,1.722-0.355,2.588c0.093,0.391,0.24,0.691,0.435,0.891c0.197,0.201,0.455,0.301,0.68,0.254
						c0.281-0.064,0.567,0.119,0.629,0.404c0.063,0.286-0.118,0.568-0.404,0.63C276.673,271.643,276.561,271.655,276.448,271.655z"
						/>
					<g>
						<g>
							<path style="fill:#F1CE9D;" d="M365.939,406.351c0,0,7.567,58.482-0.606,98.471c0,0-6.959-0.906-20.709-2.697
								c4.211-55.151-3.515-88.328-3.515-88.328L365.939,406.351z"/>
						</g>
						<g>
							<g>
								<g>
									<path style="fill:#694157;" d="M283.313,329.123c0,0-27.081,9.05-44.916,80.791c0,0,8.639,8.081,33.062,6.069
										l-15.812,90.229c0,0,25.956,11.202,40.394,5.814c14.438-5.388,11.707-5.954,60.595-6.182c0,0,2.217-53.304,2.609-89.591
										c0,0,11.202-6.965,17.133-12.433c0,0-19.855-62.45-57.015-77.611c0,0,3.69,12.481-6.422,16.524
										C298.241,348.959,283.313,329.123,283.313,329.123z"/>
									<g>
										<path style="fill:#4F3344;" d="M358.875,437.277c-0.442-2.895,0.879-7.058,0.21-10.193
											c-29.943-13.87-61.14-10.737-90.597,4.515l-1.355,8.988c0.638,0.039,2.676-0.795,3.373-1.184
											C299.989,422.99,329.243,421.56,358.875,437.277z"/>
										<path style="fill:#4F3344;" d="M303.613,388.703c12.197-2.941,25.131-2.33,37.016,1.671
											c5.015,1.688,10.173,4.724,15.621,3.034c3.142-0.975,9.711-9.779,12.563-8.109c0.107,0.062,0.211,0.095,0.317,0.146
											c-1.076-2.393-2.27-4.933-3.58-7.569c-1.689,0.413-3.322,1.258-4.808,2.439c-2.737,2.174-4.164,5.34-7.784,5.833
											c-3.503,0.477-7.094-1.81-10.358-2.917c-11.959-4.056-24.977-4.743-37.36-2.438c-6.103,1.136-11.789,3.218-17.465,5.676
											c-3.785,1.64-7.484,3.374-11.688,2.388c-2.961-0.694-5.646-2.433-8.444-3.582c-6.831-2.807-14.135-3.484-21.191-2.281
											c-0.935,2.607-1.861,5.337-2.773,8.197c3.727-1.135,7.618-1.609,11.603-1.345c6.11,0.405,10.911,3.254,16.484,5.37
											C282.942,399.458,292.998,391.262,303.613,388.703z"/>
									</g>
								</g>
							</g>
							<g>
								<g>
									<path style="fill:#4F3344;" d="M270.663,416.254c-0.253,0-0.477-0.182-0.521-0.44c-0.049-0.288,0.145-0.562,0.433-0.611
										c3.778-0.646,7.559-1.514,11.237-2.579c0.278-0.081,0.574,0.081,0.655,0.361c0.081,0.281-0.081,0.574-0.362,0.656
										c-3.716,1.077-7.536,1.953-11.353,2.605C270.723,416.251,270.693,416.254,270.663,416.254z"/>
									<path style="fill:#4F3344;" d="M281.666,413.39c-0.257,0-0.483-0.188-0.522-0.451c-1.478-9.837-1.287-19.783,0.57-29.561
										c0.055-0.287,0.334-0.477,0.618-0.421c0.287,0.054,0.477,0.331,0.422,0.619c-1.833,9.661-2.024,19.488-0.563,29.207
										c0.043,0.289-0.155,0.559-0.444,0.602C281.719,413.388,281.693,413.39,281.666,413.39z"/>
								</g>
								<path style="fill:#4F3344;" d="M282.078,391.272c-0.109,0-0.219-0.034-0.314-0.103c-0.235-0.173-0.285-0.504-0.112-0.74
									c1.482-2.011,3.24-3.804,5.225-5.327c0.23-0.178,0.563-0.136,0.742,0.097c0.178,0.232,0.134,0.564-0.097,0.742
									c-1.906,1.464-3.595,3.184-5.018,5.116C282.401,391.197,282.241,391.272,282.078,391.272z"/>
							</g>
						</g>
						<g>
							<path style="fill:#F1CE9D;" d="M271.459,415.984c0,0-10.505,44.948-6.775,89.678c-10.062,0.182-24.623,0.182-24.623,0.182
								s-1.555-49.837,3.484-92.984C243.544,412.861,256.601,417.937,271.459,415.984z"/>
						</g>
					</g>
					<path style="fill:#3F3F3F;" d="M322.427,213.777c-0.079-0.079-0.17-0.154-0.274-0.221c-0.098-0.074-0.196-0.132-0.293-0.177
						c-27.975-17.808-64.201-1.144-71.56,30.401c-4.207,18.034-2.083,36.912-13.219,52.781c-4.446,6.337-9.835,12.462-11.162,20.35
						c-0.72,4.279-0.029,8.559-0.112,12.857c-0.111,5.784-2.626,10.063-4.758,15.245c-7.025,17.078,9.842,26.791,24.085,30.13
						c6.138,1.439,13.697,1.864,17.696-3.989c2.735-4.003,2.077-8.504-1.236-11.792c-2.926-2.904-4.851-3.044-4.259-7.632
						c0.33-2.551,1.746-4.782,3.339-6.744c2.79-3.433,6.402-6.147,8.848-9.873c4.782-7.284,3.267-16.577,6.235-24.503
						c2.731-7.294,7.855-14.603,6.05-22.795c-0.701-3.181-2.459-5.723-4.698-8.023c-3.293-3.383-9.431-7.405-7.184-12.822
						c2.062-4.971,8.194-3.392,12.626-4.379c2.873-0.64,5.182-2.04,6.931-4.436c2.426-3.324,3.036-7.766,5.785-10.877
						c3.501-3.961,9.353-3.431,14.106-4.169c7.287-1.131,15.461-5.403,18.251-12.665
						C330.048,224.134,327.529,217.772,322.427,213.777z"/>
					<g>
						<path style="fill:#353535;" d="M306.614,258.758c-0.017-0.19-0.057-0.385-0.302-0.593c-1.678-1.53-3.625-1.617-5.425-1.458
							c-2.717,0.24-5.143,1.35-7.227,3.077c-0.047,0.039-0.077,0.048-0.131,0.094c-0.273,0.212-0.264,0.474-0.135,0.838
							c0.171,0.283,0.512,0.391,0.795,0.28c0.873-0.345,1.752-0.64,2.642-0.886c0.289-0.08,0.582-0.144,0.877-0.196
							c1.536-0.269,3.081-0.456,4.637-0.546c0.283-0.016,0.568-0.018,0.851-0.006c0.935,0.038,1.868,0.089,2.805,0.029
							c0.146-0.009,0.256-0.066,0.347-0.149C306.529,259.152,306.628,258.962,306.614,258.758z"/>
						<path style="fill:#353535;" d="M315.155,258.858c0-0.191,0.022-0.389,0.247-0.618c1.533-1.675,3.464-1.938,5.271-1.943
							c2.727-0.007,5.244,0.88,7.476,2.411c0.05,0.034,0.081,0.041,0.139,0.082c0.291,0.187,0.306,0.448,0.21,0.822
							c-0.145,0.297-0.475,0.436-0.766,0.35c-0.901-0.264-1.803-0.479-2.712-0.644c-0.295-0.053-0.592-0.091-0.891-0.116
							c-1.554-0.129-3.109-0.175-4.667-0.124c-0.283,0.009-0.567,0.034-0.848,0.071c-0.928,0.123-1.852,0.257-2.791,0.283
							c-0.146,0.004-0.261-0.043-0.359-0.117C315.276,259.242,315.16,259.062,315.155,258.858z"/>
						<g>
							<path style="fill:#353535;" d="M303.502,266.65c0,1.542-0.853,2.792-1.906,2.792c-1.053,0-1.906-1.25-1.906-2.792
								s0.853-2.792,1.906-2.792C302.648,263.859,303.502,265.108,303.502,266.65z"/>
							<path style="fill:#FFFFFF;" d="M301.752,264.671c-0.643,0-0.645,1,0,1C302.395,265.671,302.396,264.671,301.752,264.671z"/>
						</g>
						<g>
							<path style="fill:#353535;" d="M323.05,266.65c0,1.542-0.853,2.792-1.906,2.792s-1.906-1.25-1.906-2.792
								s0.854-2.792,1.906-2.792S323.05,265.108,323.05,266.65z"/>
							<path style="fill:#FFFFFF;" d="M321.3,264.671c-0.643,0-0.645,1,0,1C321.944,265.671,321.945,264.671,321.3,264.671z"/>
						</g>
						<path style="fill:#91694D;" d="M312.911,285.034c-0.361,0-0.712-0.097-1.003-0.292c-0.229-0.154-0.29-0.465-0.136-0.693
							c0.154-0.23,0.464-0.291,0.694-0.137c0.307,0.205,0.797,0.152,1.141-0.123c0.456-0.365,0.6-0.967,0.644-1.293
							c0.076-0.555,0.006-1.151-0.063-1.729l-0.686-5.8c-0.032-0.274,0.164-0.522,0.438-0.555c0.274-0.041,0.522,0.162,0.555,0.438
							l0.686,5.8c0.075,0.639,0.153,1.3,0.061,1.98c-0.112,0.818-0.471,1.507-1.01,1.939
							C313.848,284.877,313.372,285.034,312.911,285.034z"/>
						<path style="fill:#FFFFFF;" d="M318.937,289.16c0.622-0.271,1.298,0.263,1.173,0.929c-0.431,2.298-1.977,4.386-4.057,5.493
							c-2.54,1.352-5.742,1.266-8.303-0.047c-1.434-0.735-2.665-1.834-3.611-3.134c-0.599-0.824-2.49-3.758-0.232-3.104
							c3.568,1.033,6.766,1.797,10.524,1.182C315.981,290.226,317.499,289.786,318.937,289.16z"/>
					</g>
				</g>
			</g>
			<g>
				<g>
					<path style="fill:#4F5D83;" d="M223.845,67.143c-6.896-12.651-123.77-17.635-142.644-3.451
						c-12.34,9.274-2.435,50.654,5.807,60.571c6.736,8.104,38.013,10.856,67.649,10.239l-6.053,14.443l20.929-15.043
						c20.503-1.236,37.809-4.06,41.97-7.723C222.394,116.596,230.742,79.794,223.845,67.143z"/>
					<g>
						<path style="fill:#FFFFFF;" d="M108.201,95.294c-2.203,0.4-5.111,0.575-7.616,0.575c-2.106,0-3.934-0.124-4.911-0.324
							c-3.032-0.677-4.336-2.581-4.336-4.786c0-1.93,1.077-3.858,2.556-5.362l1.453,0.751c-1.404,1.455-2.205,3.058-2.205,4.46
							c0,1.455,0.977,2.783,3.132,3.258c0.877,0.2,2.356,0.3,4.085,0.3c2.432,0,5.337-0.2,7.718-0.675L108.201,95.294z
							 M96.951,82.641c1.304-1.002,3.083-2.23,4.436-2.907v-0.024c-1.906,0.227-6.266,0.326-9.047,0.3c0-0.475,0-1.302-0.024-1.753
							c0.551,0.024,10.173,0.175,14.282-0.802l0.202,1.855c-2.983,0.349-6.816,2.956-8.42,4.233L96.951,82.641z"/>
						<path style="fill:#FFFFFF;" d="M110.87,96.12c1.855-5.311,4.935-14.182,5.913-16.838c0.477-1.353,1.128-3.256,1.304-3.883
							l2.705,0.702c-0.124,0.349-0.475,0.475-0.977,0.475c-1.377,3.432-3.507,9.295-4.436,11.801h0.027
							c1.477-1.804,3.733-3.081,5.486-3.081c2.181,0,3.234,1.477,3.158,3.807l-0.076,2.983c-0.024,1.879,0.977,2.907,2.605,2.907
							c2.255,0,4.336-2.581,5.488-6.892c0.5,0.351,1.102,0.677,1.628,0.928c-1.377,4.784-3.858,7.792-7.192,7.792
							c-2.656,0-4.385-1.604-4.385-4.16c0-0.475,0.076-2.781,0.076-3.307c0-1.577-0.651-2.406-1.755-2.406
							c-2.881,0-5.788,4.185-6.414,5.815c-0.351,0.875-0.902,2.479-1.377,3.934L110.87,96.12z"/>
						<path style="fill:#FFFFFF;" d="M141.051,76.451c-0.076,0.277-0.326,0.426-0.826,0.402c-0.877,4.085-1.328,8.569-1.328,11.274
							c0,1.881,0.076,3.785,0.324,4.962c0.477-1.228,1.555-3.858,1.906-4.735l1.053,1.102c-1.028,2.532-1.779,3.96-2.13,5.086
							c-0.126,0.426-0.202,0.828-0.202,1.179c0,0.276,0.051,0.526,0.127,0.775l-1.779,0.327c-0.802-2.381-1.102-5.286-1.102-8.62
							c0-3.283,0.524-7.867,1.326-12.203L141.051,76.451z M157.012,94.768c-0.902,0.051-1.828,0.076-2.756,0.076
							c-1.779,0-3.458-0.1-4.66-0.275c-3.083-0.451-4.511-2.155-4.511-4.16c0-1.728,0.953-3.183,2.356-4.835l1.628,0.702
							c-1.253,1.302-2.13,2.505-2.13,3.934c0,2.905,4.26,2.905,6.865,2.905c1.053,0,2.181-0.049,3.232-0.124L157.012,94.768z
							 M145.411,79.458c3.232-0.076,7.592-0.375,10.925-0.953l0.149,1.755c-3.107,0.526-8.143,0.853-11.025,0.928L145.411,79.458z"
							/>
						<path style="fill:#FFFFFF;" d="M178.751,79.658c-3.258,0.828-7.794,1.355-10.775,1.455c-0.326,3.132-0.777,5.713-1.179,6.639
							c1.954-1.577,4.986-2.656,7.116-2.656c3.734,0,6.015,2.006,6.015,5.388c0,4.986-5.037,6.665-13.18,6.866
							c-0.1-0.475-0.275-1.228-0.502-1.655c7.192-0.149,11.852-1.377,11.852-5.16c0-2.257-1.504-3.809-4.409-3.809
							c-2.23,0-6.064,1.353-7.718,3.834l-1.755-0.828c0.802-0.902,1.63-4.484,2.006-8.593h-5.864v-1.755
							c1.053,0.027,4.136,0.027,6.015,0.027c0.1-1.428,0.149-3.032,0.149-4.535l2.656,0.251c-0.049,0.424-0.351,0.5-0.802,0.551
							c-0.049,1.253-0.125,2.53-0.224,3.707c2.654-0.073,7.265-0.651,10.273-1.528L178.751,79.658z"/>
						<path style="fill:#FFFFFF;" d="M185.73,96.471c-0.777-1.804-1.077-5.537-1.077-8.82c0-3.332,0.526-7.516,1.353-11.701
							l2.43,0.475c-0.049,0.251-0.3,0.426-0.651,0.451c-0.902,3.434-1.453,7.894-1.453,10.799c0,1.905,0.024,3.809,0.224,4.737
							c0.551-1.504,1.555-3.909,2.081-5.086l1.126,1.051c-0.826,1.704-2.581,5.513-2.581,6.69c0,0.351,0.076,0.728,0.251,1.204
							L185.73,96.471z M192.094,81.712c2.105,0.026,4.211,0.051,6.314-0.1c-0.1-2.154-0.175-4.009-0.225-5.861l2.53,0.074
							c-0.024,0.251-0.251,0.451-0.651,0.526c0.025,1.604,0.076,3.234,0.124,5.137c1.979-0.2,3.583-0.551,4.911-1.002l0.227,1.753
							c-1.204,0.377-2.932,0.728-5.062,0.904c0.1,2.781,0.226,5.713,0.3,7.316c1.906,0.775,3.809,2.004,5.113,3.181l-0.977,1.604
							c-1.028-1.026-2.505-2.13-4.06-2.856c-0.024,2.13-0.424,4.511-4.185,4.511c-2.932,0-4.884-1.404-4.884-3.609
							c0-2.554,2.579-3.683,4.884-3.683c0.778,0,1.604,0.1,2.381,0.326c-0.076-1.579-0.224-4.209-0.351-6.665
							c-0.777,0.049-1.828,0.076-2.557,0.076h-3.807L192.094,81.712z M198.959,91.561c-0.802-0.251-1.653-0.451-2.479-0.451
							c-1.53,0-3.358,0.551-3.358,2.13c0,1.404,1.504,2.105,3.332,2.105c1.855,0,2.532-0.904,2.532-2.907L198.959,91.561z"/>
					</g>
					
						<text transform="matrix(1 0 0 1 108.202 117.0929)" style="fill:#FFFFFF; font-family:'Montserrat-Regular'; font-size:13.2382px;">kon&apos;nichiwa</text>
				</g>
				<g>
					<g>
						<path style="fill:#E1A66F;" d="M157.105,202.505c0,0,7.183,77.639-17.277,76.918c-24.46-0.722-43.187-4.441-49.12-16.874
							c-5.932-12.433-10.802-40.752-3.259-51.588C94.992,200.126,119.509,174.491,157.105,202.505z"/>
						<path style="fill:#E1A66F;" d="M96.372,265.487c-0.334,0.775,0.352,28.512,0.352,28.512s-9.203,2.732-14.558,7.628
							c0,0,5.829,22.235,28.037,16.801c22.208-5.434,22.443-17.419,22.443-17.419s-4.423-3.388-11.429-6.019l-0.724-20.133
							L96.372,265.487z"/>
						<path style="fill:#C79167;" d="M94.508,242.719c-0.583,0-1.151-0.347-1.421-0.87c-0.213-0.413-0.22-0.858-0.225-1.216
							c-0.025-2.002,0.043-4.095,1.162-5.775c0.407-0.611,0.958-0.886,1.476-0.733c0.278,0.081,0.469,0.265,0.606,0.415
							c0.37,0.404,0.653,0.9,0.817,1.432c0.087,0.279-0.07,0.575-0.349,0.661c-0.283,0.088-0.576-0.071-0.661-0.35
							c-0.118-0.382-0.321-0.739-0.589-1.03c-0.084-0.094-0.118-0.111-0.124-0.113c-0.021,0.008-0.152,0.093-0.294,0.305
							c-0.95,1.428-1.007,3.339-0.984,5.174c0.004,0.271,0.008,0.553,0.107,0.746c0.089,0.173,0.29,0.296,0.481,0.296
							c0.002,0,0.005,0,0.008,0c0.193-0.003,0.395-0.135,0.479-0.313c0.124-0.265,0.44-0.376,0.705-0.253
							c0.263,0.124,0.377,0.44,0.252,0.704c-0.255,0.54-0.825,0.909-1.417,0.919C94.526,242.719,94.517,242.719,94.508,242.719z"/>
						<g>
							<path style="fill:#6A413B;" d="M98.561,230.572c0,0,7.854-2.767,6.19-15.805c0,0,7.263,1.209,9.23-10.893
								c0,0,7.35,5.208,16.612-1.838c0,0,7.1,6.894,18.318,0c0,0,3.829,5.246,8.885,3.772c5.056-1.474,7.194-11.499,4.93-15.969
								c-2.264-4.47,2.706-9.661,0.601-13.386c-2.105-3.725-7.363-3.553-8.943-7.97c-1.58-4.416-1.557-8.813-10.918-8.847
								c-9.362-0.034-8.01-3.731-14.814-6.708c-6.803-2.977-9.53,1.155-16.262,2c-6.731,0.844-8.412-6.353-12.882-4.996
								c-4.47,1.357-7.572,6.3-12.059,6.759c-4.487,0.46-9.504-2.642-13.35,0.977c-3.846,3.619-1.577,11.125-4.603,14.342
								c-3.026,3.217-7.824,2.813-9.434,7.687c-1.611,4.875,3.554,10.658,2.914,16.378c-0.64,5.72-3.795,8.877-1.588,14.313
								c2.207,5.436,7.352,7.09,9.016,10.552c1.664,3.462-3.026,10.587-1.21,15.604c1.816,5.016,6.36,7.705,8.778,11.493
								c2.418,3.787-0.091,12.868,5.627,16.753c5.718,3.885,12.683,4.662,12.683,4.662s2.673-6.625,0.6-10.121
								c-3.092-5.218,0-6.894-0.151-10.111c-0.151-3.217-0.757-1.992-0.757-1.992s-8.73,5.08-8.526-11.247
								c0.204-16.327,4.289-15.408,7.467-11.272C98.093,228.844,98.561,230.572,98.561,230.572z"/>
						</g>
					</g>
					<g>
						<g>
							<path style="fill:#4E4E4E;" d="M160.534,403.489c-0.27,0-0.5-0.206-0.526-0.48c-1.71-18.217-4.777-36.463-9.118-54.23
								c-0.069-0.284,0.104-0.57,0.388-0.64c0.288-0.07,0.571,0.105,0.64,0.389c4.354,17.817,7.43,36.114,9.145,54.382
								c0.027,0.291-0.187,0.549-0.478,0.577C160.568,403.489,160.55,403.489,160.534,403.489z"/>
							<path style="fill:#4E4E4E;" d="M78.615,409.662c-0.025,0-0.05-0.002-0.075-0.005c-0.289-0.041-0.491-0.309-0.451-0.598
								c2.654-18.849,7.168-37.511,13.416-55.469c0.097-0.275,0.404-0.421,0.674-0.326c0.276,0.096,0.422,0.397,0.327,0.674
								c-6.226,17.892-10.723,36.487-13.368,55.268C79.101,409.471,78.875,409.662,78.615,409.662z"/>
						</g>
						<g>
							<path style="fill:#E1A66F;" d="M50.392,397.774c-7.79,11.093-14.981,110.087-14.981,110.087h25.722
								c1.267-20.03,17.296-96.713,17.296-97.967C78.429,409.894,74.205,403.44,50.392,397.774z"/>
						</g>
						<g>
							<path style="fill:#E1A66F;" d="M180.15,386.993c1.876,2.284,9.793,11.923,9.793,11.923s35.094-32.433,45.74-38.269
								l14.339,7.568c0,0-35.283,47.913-60.722,63.839c0,0-24.406-11.167-35.207-23.819
								C154.092,408.236,171.248,400.415,180.15,386.993z"/>
							<path style="fill:#C79167;" d="M237.449,370.079c-0.136,0-0.274-0.053-0.377-0.158c-2.09-2.121-3.298-5.176-3.233-8.17
								c0.006-0.293,0.277-0.515,0.541-0.518c0.293,0.007,0.524,0.249,0.518,0.54c-0.06,2.715,1.036,5.482,2.929,7.404
								c0.205,0.208,0.203,0.544-0.006,0.748C237.717,370.028,237.583,370.079,237.449,370.079z"/>
							<g>
								<g>
									<path style="fill:#E1A66F;" d="M257.529,341.815c1.091-0.723,2.121-1.475,3.145-2.228c2.023-1.523,3.979-3.086,5.909-4.672
										c3.845-3.186,7.587-6.439,11.276-9.783c0.452-0.408,0.544-1.103,0.191-1.621c-0.382-0.562-1.142-0.704-1.706-0.312
										c-4.031,2.809-8.138,5.543-12.274,8.158c-2.073,1.299-4.158,2.565-6.252,3.755c-1.049,0.581-2.097,1.155-3.139,1.667
										c-0.392,0.196-0.775,0.365-1.157,0.533c-0.111-0.217-0.225-0.43-0.342-0.645c1.143-0.843,2.245-1.711,3.323-2.595
										c1.874-1.538,3.649-3.149,5.401-4.776c1.749-1.629,3.447-3.298,5.118-4.988l2.483-2.556l2.385-2.54l0.085-0.09
										c0.53-0.563,0.569-1.452,0.063-2.062c-0.543-0.655-1.507-0.741-2.155-0.192l-2.727,2.315l-2.703,2.219
										c-1.813,1.462-3.644,2.896-5.504,4.273c-1.86,1.374-3.734,2.723-5.646,3.96c-1.732,1.123-3.487,2.182-5.242,3.085
										c-2.29,0.291-3.341,3.536-4.195,5.506c-0.653,1.507-1.306,3.014-1.959,4.521l-2.255-6.643
										c-0.291-0.852-1.098-1.46-2.037-1.442c-1.165,0.023-2.092,0.998-2.069,2.178c0,0,0.378,19.714,0.376,19.718
										c-1.54,3.553-2.216,7.481-0.049,10.955c2.285,3.662,6.923,5.234,11.005,4.204c6.067-1.531,10.427-7.848,11.895-13.712
										c0.228-0.912,0.357-1.823,0.417-2.731c1.566-0.626,2.875-1.44,4.14-2.267c1.679-1.121,3.197-2.348,4.642-3.628
										c1.449-1.275,2.828-2.597,4.152-3.962c1.329-1.369,2.603-2.746,3.853-4.214c0.406-0.476,0.423-1.193,0.011-1.69
										c-0.458-0.551-1.27-0.622-1.836-0.141c-1.372,1.168-2.832,2.312-4.292,3.397c-1.463,1.09-2.961,2.121-4.48,3.075
										c-1.514,0.96-3.063,1.837-4.611,2.538c-0.729,0.332-1.473,0.633-2.192,0.87c-0.085-0.34-0.177-0.68-0.276-1.018
										c0.892-0.505,1.75-1.036,2.594-1.58c1.787-1.156,3.472-2.401,5.12-3.678c1.65-1.275,3.25-2.596,4.82-3.948
										c1.572-1.355,3.105-2.722,4.626-4.159c0.461-0.439,0.537-1.173,0.148-1.698c-0.418-0.563-1.207-0.677-1.782-0.24
										c-3.207,2.438-6.547,4.784-9.952,6.901c-1.703,1.059-3.427,2.075-5.175,2.962c-0.68,0.346-1.366,0.674-2.052,0.983
										c-0.161-0.367-0.326-0.731-0.494-1.093C256.63,342.399,257.089,342.109,257.529,341.815z"/>
									<path style="fill:#C79167;" d="M243.244,365.216c-0.175,0-0.342-0.101-0.418-0.272c-0.103-0.231,0.002-0.501,0.233-0.603
										c3.04-1.347,6.15-7.431,6.046-10.698c-0.008-0.253,0.19-0.464,0.443-0.471c0.257-0.019,0.463,0.19,0.471,0.442
										c0.113,3.564-3.187,10.055-6.59,11.562C243.369,365.203,243.306,365.216,243.244,365.216z"/>
								</g>
								<path style="fill:#C79167;" d="M241.682,354.841c-0.109,0-0.217-0.038-0.304-0.116c-0.188-0.168-0.204-0.457-0.037-0.645
									c0.816-0.914,1.127-2.083,1.244-2.904c0.166-1.157,0.067-2.343-0.052-3.351c-0.187-1.569-0.479-3.136-0.872-4.656
									c-0.062-0.245,0.084-0.493,0.328-0.557c0.247-0.062,0.493,0.084,0.557,0.328c0.402,1.56,0.703,3.168,0.893,4.778
									c0.126,1.067,0.23,2.327,0.05,3.588c-0.194,1.355-0.701,2.525-1.467,3.383C241.933,354.79,241.808,354.841,241.682,354.841z
									"/>
							</g>
						</g>
						<g>
							<path style="fill:#2A3046;" d="M82.167,301.535c0,0-29.459,23.393-41.155,94.203c0,0,29.329,5.198,37.417,14.157
								c0,0-19.127,80.231-17.296,97.967c0,0,41.628,13.059,67.549,5.633c25.922-7.426,44.327-8.178,44.327-8.178
								s-2.029-75.78-11.454-100.994l24.193-14.536c0,0-15.663-55.675-53.101-88.87c0,0-1.792,5.325-8.116,7.534
								C113.127,312.434,92.716,312.994,82.167,301.535z"/>
							<g>
								<path style="fill:#4F5D83;" d="M80.752,398.29c-11.04-7.826-24.509-10.59-38.082-11.69
									c-0.584,2.955-1.139,5.997-1.658,9.137c0,0,29.164,5.17,37.345,14.085C79.238,405.993,80.163,402.173,80.752,398.29z"/>
								<path style="fill:#4F5D83;" d="M139.208,307.178c-2.109-2.158-4.294-4.252-6.561-6.262c0,0-1.792,5.325-8.116,7.534
									c-11.404,3.983-31.815,4.543-42.364-6.916c0,0-2.653,2.109-6.68,6.968c12.254,9.246,26.522,15.81,42.245,12.767
									C127.251,319.427,134.018,314.105,139.208,307.178z"/>
								<path style="fill:#4F5D83;" d="M160.305,402.721c0.258,0.449,0.497,0.908,0.744,1.362c0.188,0.11,0.371,0.229,0.548,0.357
									c-0.014-0.038-0.028-0.08-0.042-0.118l24.193-14.536c0,0-1.27-4.512-3.948-11.728c-7.471,5.221-14.941,10.443-22.411,15.664
									c-0.146,1.633,0.264,3.342,0.505,4.936C160.097,400.007,160.21,401.363,160.305,402.721z"/>
							</g>
							<path style="fill:#4F5D83;" d="M143.573,361.769c0.376,6.16,0.753,12.321,1.129,18.481
								c-13.548,3.695-27.917,1.621-41.802-0.475c-0.463-0.07-0.963-0.158-1.284-0.499c-0.322-0.342-0.38-0.85-0.414-1.319
								c-0.244-3.363-1.039-10.729,1.063-13.637c2.107-2.916,7.904-1.233,11.19-1.158
								C115.971,363.22,143.635,362.788,143.573,361.769z"/>
						</g>
					</g>
					<path style="fill:#6A413B;" d="M129.778,220.957c-5.408-3.96-11.786-1.036-15.369,3.769c-0.339,0.423-0.664,0.863-0.96,1.335
						c-0.156,0.249-0.03,0.525,0.179,0.684l0.333,0.253c0.172,0.131,0.339,0.115,0.47,0.028c0.055-0.021,0.109-0.048,0.16-0.093
						c2.572-2.278,5.506-3.853,8.74-4.738c1.035-0.283,2.098-0.458,3.171-0.486c0.955-0.025,1.921,0.027,2.89,0.162
						C129.954,221.949,130.254,221.305,129.778,220.957z"/>
					<path style="fill:#6A413B;" d="M140.354,220.624c5.021-4.439,11.641-2.114,15.65,2.342c0.376,0.39,0.74,0.798,1.079,1.242
						c0.178,0.234,0.078,0.52-0.116,0.698l-0.308,0.282c-0.159,0.146-0.327,0.145-0.465,0.071c-0.056-0.016-0.113-0.038-0.168-0.078
						c-2.77-2.032-5.837-3.331-9.139-3.915c-1.057-0.187-2.131-0.264-3.202-0.193c-0.953,0.063-1.91,0.203-2.863,0.426
						C140.27,221.628,139.913,221.015,140.354,220.624z"/>
					<path style="fill:#493735;" d="M128.675,231.915c-1.16-2.054-2.825-4.288-5.444-4.286c-2.569,0.002-4,2.312-4.963,4.37
						c-0.542,1.159,1.181,2.175,1.727,1.009c0.628-1.34,1.465-3.336,3.237-3.38c1.837-0.046,2.951,1.939,3.717,3.295
						C127.581,234.045,129.309,233.038,128.675,231.915z"/>
					<path style="fill:#493735;" d="M152.112,231.915c-1.16-2.054-2.825-4.288-5.444-4.286c-2.569,0.002-4,2.312-4.963,4.37
						c-0.543,1.159,1.181,2.175,1.727,1.009c0.628-1.34,1.465-3.336,3.237-3.38c1.837-0.046,2.951,1.939,3.717,3.295
						C151.018,234.045,152.747,233.038,152.112,231.915z"/>
					<path style="fill:none;stroke:#C79167;stroke-linecap:round;stroke-linejoin:round;stroke-miterlimit:10;" d="M137.699,237.497
						c0.229,3.569,0.458,7.139,0.686,10.708c0.063,0.978,0.121,1.989-0.217,2.909c-0.338,0.92-1.183,1.729-2.163,1.701"/>
					<path style="fill:#472926;" d="M143.957,260.398c0.438-0.173,0.889,0.235,0.731,0.678c-1.319,3.695-5.043,6.469-8.988,6.528
						c-3.649,0.054-7.527-2.322-8.954-5.735c-0.454-1.086-0.258-1.719,0.941-1.392c1.112,0.303,2.17,0.732,3.306,0.972
						c2.193,0.464,4.456,0.601,6.689,0.41C139.828,261.675,141.952,261.188,143.957,260.398z"/>
					<path style="fill:#603634;" d="M134.634,261.908c-1.224-0.058-2.443-0.204-3.642-0.458c-1.136-0.24-2.194-0.669-3.306-0.972
						c-1.2-0.327-1.396,0.306-0.941,1.392c1.428,3.413,5.305,5.789,8.955,5.735c1.127-0.017,2.234-0.262,3.274-0.68
						C137.862,264.91,136.385,263.215,134.634,261.908z"/>
				</g>
			</g>
		</g>
	</g>
</g>
</svg>
