<svg width="245" height="70" viewBox="0 0 245 70" fill="none" xmlns="http://www.w3.org/2000/svg">
<path d="M8.37015 11.4556C9.59702 4.81738 15.3863 0 22.137 0H229.969C238.443 0 244.975 7.46902 243.844 15.8672L238.192 57.8672C237.257 64.8149 231.328 70 224.317 70H14.3746C5.62342 70 -0.982719 62.0611 0.607733 53.4556L8.37015 11.4556Z" fill="url(#paint0_linear_19029_81407)"/>
<path d="M64.1309 14.8189H52.8412C50.1504 14.8189 48.5125 15.8719 47.8106 18.5042L42.8969 35.117C42.3705 37.0474 41.9025 38.7437 41.4345 41.0251H40.8496C41.0251 38.9192 41.0836 36.9889 40.9666 35L40.2646 18.9721C40.2061 16.3398 38.5097 14.8189 35.8774 14.8189H25.1142C22.2479 14.8189 21.0195 16.1059 20.493 18.9721L14 55.1811H25.4067L30.7298 24.2953H31.6657L32.7772 44.6518C32.8941 47.2256 34.5905 48.7465 37.2813 48.7465H43.7159C46.4652 48.7465 48.0446 47.6936 48.805 45.1198L55.5905 24.2953H56.4095L53.2507 55.1811H64.6574L68.2841 19.4401C68.5766 16.5738 66.9972 14.8189 64.1309 14.8189Z" fill="white"/>
<path d="M111.214 14.8189H97.7018L90.8578 27.8635C89.9219 29.7939 89.2784 32.0167 89.1029 33.6546H88.2255C88.284 31.8412 88.3425 30.0864 87.816 27.7465L84.7158 14.8189H72.0807L81.323 42.2535L79.5096 55.1811H92.2617L93.9581 42.9554L111.214 14.8189Z" fill="white"/>
<path d="M145.007 25.3482C146.119 16.8078 141.79 14.351 131.085 14.351C124.007 14.351 119.562 14.4095 114.531 14.8189L108.857 55.1811C114.59 55.5905 119.445 55.649 128.57 55.649C138.631 55.649 143.019 53.6602 144.13 45.5877C145.066 38.9192 143.019 34.9415 136.642 34.415L136.701 34.0641C142.317 33.5961 144.247 30.9053 145.007 25.3482ZM132.899 26.2256C132.372 29.7354 131.612 30.4373 128.629 30.4373H124.709L125.762 23.1253H130.676C132.723 23.1253 133.25 23.8858 132.899 26.2256ZM131.436 42.078C130.851 46.0557 129.857 46.8747 126.113 46.8747H122.428L123.656 38.1003H128.395C131.319 38.1003 131.904 38.8022 131.436 42.078Z" fill="white"/>
<path d="M185.867 26.9861C187.154 17.3343 181.363 14.234 170.132 14.234C162.703 14.234 159.076 14.2925 153.812 14.8189L148.138 55.1811H160.539L162.586 40.4401H167.032C168.787 40.4401 169.313 40.7326 169.372 42.9554L170.425 55.1811H183.528L182.007 43.0139C181.539 38.1003 178.672 36.8134 176.684 36.5209L176.742 36.1114C183.294 35.468 185.224 31.6072 185.867 26.9861ZM173.232 26.8691C172.647 30.6713 171.711 31.4903 168.26 31.4903H163.873L165.043 23.1838H170.015C172.881 23.1838 173.642 24.0613 173.232 26.8691Z" fill="white"/>
<path d="M209.93 14C197.353 14 191.854 18.0947 189.573 34.532C187.292 51.1448 192.03 56 206.01 56C218.704 56 224.437 52.0808 226.659 35.468C228.882 18.6797 223.267 14 209.93 14ZM209.813 23.4178C213.966 23.4178 214.726 25.3482 213.322 34.532C211.801 44.5348 210.69 46.5822 206.303 46.5822C202.15 46.5822 201.389 44.7103 202.852 35.468C204.431 25.4652 205.542 23.4178 209.813 23.4178Z" fill="white"/>
<defs>
<linearGradient id="paint0_linear_19029_81407" x1="121.765" y1="0" x2="121.765" y2="70" gradientUnits="userSpaceOnUse">
<stop stop-color="#D870FF"/>
<stop offset="1" stop-color="#6200F6"/>
</linearGradient>
</defs>
</svg>
